<svg xmlns="http://www.w3.org/2000/svg" version="1.1" viewBox="0 0 100 100" >
  <path fill="#333333" d="M92.273,67.142c-3.417-4.418-8.2-5.995-11.224-6.558l12.368-15.536c0.355-0.446,0.427-1.056,0.184-1.572  c-0.242-0.516-0.757-0.85-1.328-0.861l-8.731-0.172c0.56-0.703,1.053-1.543,1.353-2.528c0.678-2.226,0.237-4.617-1.312-7.107  c-2.011-3.234-5.396-3.786-8.118-4.229c-1.371-0.224-2.667-0.435-3.298-0.932c-0.818-0.643-1.124-3.737-1.347-5.997  c-0.366-3.719-0.745-7.565-3.121-9.081c-1.439-0.918-3.053-1.364-4.932-1.364c-1.784,0-3.557,0.399-5.271,0.785  c-1.609,0.362-3.129,0.704-4.548,0.704c-0.288,0-0.565-0.015-0.827-0.043c-1.289-0.142-3.539-0.853-5.922-1.605  c-4.028-1.272-9.04-2.856-12.958-2.856c-1.49,0-2.725,0.218-3.774,0.665c-3.24,1.381-3.667,6.06-4.079,10.585  c-0.243,2.661-0.493,5.413-1.29,6.639c-0.588,0.905-2.602,1.518-4.549,2.109c-3.601,1.095-8.083,2.458-9.323,6.984  c-0.815,2.975,2.297,6.355,4.977,8.622L4.876,44.65c-0.543,0.045-1.02,0.381-1.244,0.879c-0.224,0.498-0.16,1.077,0.167,1.514  l12.563,16.804c-2.004,0.992-5.234,2.855-7.115,5.32C5.895,73.561,5.396,88.573,5.35,90.271c-0.011,0.419,0.154,0.824,0.455,1.116  c0.281,0.272,0.656,0.424,1.045,0.424c0.028,0,0.057-0.001,0.085-0.002l88.15-5.004c0.397-0.023,0.77-0.202,1.034-0.499  c0.265-0.298,0.401-0.688,0.378-1.085C96.418,83.826,95.619,71.462,92.273,67.142z M38.922,55.522  c-1.374,2.13-3.913,6.399-9.192,4.284c-5.756-2.307-9.995-13.895-5.393-12.305c3.009,1.041,10.365,3.104,15.061,3.491  C40.346,51.071,39.568,54.52,38.922,55.522z M51.388,63.107c-6.479,1.357-8.481-4.067-9.671-6.767  c-0.447-1.015-0.663-5.255,0.439-5.153c5.46,0.505,14.205-0.335,17.864-0.92C65.617,49.376,58.449,61.629,51.388,63.107z   M67.262,35.447c-16.355,7.651-33.092,3.284-40.432-0.688c-3.642-1.971-1.451-3.718,1.451-2.03  c5.887,3.422,23.12,6.526,36.986,0.725C71.048,31.035,70.548,33.911,67.262,35.447z"></path>
</svg>