<svg xmlns="http://www.w3.org/2000/svg" viewBox="0 0 100 100">
  <path fill="#000000" d="M70.559,77.387C70.951,77.795,71.476,78,72,78c0.499,0,0.999-0.186,1.387-0.559  c6.602-6.352,10.238-14.85,10.241-23.927c0.002-9.085-3.634-17.593-10.24-23.955c-0.795-0.767-2.061-0.743-2.828,0.053  c-0.766,0.796-0.743,2.062,0.053,2.828c5.815,5.601,9.017,13.085,9.015,21.073c-0.002,7.98-3.203,15.455-9.014,21.045  C69.817,75.325,69.793,76.591,70.559,77.387z"></path>
  <path fill="#000000" d="M53.997,20.295c-10.241-1.218-20.367,2.283-27.777,9.608c-6.59,6.516-10.153,15.072-10.032,24.093  c0.12,8.933,3.83,17.266,10.445,23.463C27.019,77.821,27.51,78,28,78c0.534,0,1.066-0.212,1.46-0.633  c0.755-0.806,0.714-2.071-0.092-2.827c-5.814-5.447-9.075-12.762-9.18-20.598c-0.106-7.924,3.035-15.451,8.845-21.194  c6.539-6.464,15.463-9.556,24.492-8.481c1.098,0.131,2.092-0.653,2.222-1.75C55.877,21.42,55.094,20.425,53.997,20.295z"></path>
  <path fill="#000000" d="M63.795,24.165c-1.011-0.439-2.191,0.026-2.63,1.04l-9.51,21.954C51.118,47.059,50.566,47,50,47  c-4.962,0-9,4.037-9,9s4.038,9,9,9s9-4.037,9-9c0-2.971-1.453-5.602-3.678-7.242l9.514-21.963  C65.274,25.781,64.809,24.604,63.795,24.165z M50,61c-2.757,0-5-2.243-5-5s2.243-5,5-5s5,2.243,5,5S52.757,61,50,61z"></path>
  <path fill="#000000" d="M50,7C24.523,7,3,28.523,3,54c0,12.258,5.252,24.441,14.409,33.428c0.788,0.773,2.054,0.762,2.828-0.027  s0.762-2.055-0.026-2.829C11.815,76.334,7,65.19,7,54c0-23.309,19.691-43,43-43s43,19.691,43,43  c0,11.476-4.624,22.333-13.021,30.572c-0.788,0.774-0.8,2.04-0.027,2.829C80.345,87.8,80.862,88,81.38,88  c0.505,0,1.012-0.19,1.401-0.572C91.95,78.43,97,66.559,97,54C97,28.523,75.477,7,50,7z"></path>
</svg>
